# xmcd
#
# Track frame offsets: 
#        150
#        20565
#        45249
#        62071
#        87170
#        112256
#        131435
#        143060
#        174075
#        188366
#        227192
#        241458
#        266466
#        286600
#
# Disc length: 4116 seconds
#
# Revision: 0
# Processed by: cddbd v1.5.2PL0 Copyright (c) Steve Scherf et al.
# Submitted via: ExactAudioCopyFreeDBPlugin 1.0
#
DISCID=b210120e
DTITLE=Modern Earl - Live - Loud And Proud
DYEAR=2016
DGENRE=Country Rock
TTITLE0=Paid To Party
TTITLE1=Whiskey On The Table
TTITLE2=Catfish And Titties
TTITLE3=I Know You Rider
TTITLE4=Trigger Happy Sister
TTITLE5=Road Trippin'
TTITLE6=Hillbilly Band
TTITLE7=Whiskey Sister
TTITLE8=Hot Damn
TTITLE9=Devil's Playhouse
TTITLE10=That Girl Can Drink
TTITLE11=Angel From Montgomery
TTITLE12=Bloody Mary Morning
TTITLE13=T For Texas
EXTD=
EXTT0=
EXTT1=
EXTT2=
EXTT3=
EXTT4=
EXTT5=
EXTT6=
EXTT7=
EXTT8=
EXTT9=
EXTT10=
EXTT11=
EXTT12=
EXTT13=
PLAYORDER=
